<svg width="188" height="75" viewBox="0 0 188 75" fill="none" xmlns="http://www.w3.org/2000/svg">
<path d="M3.3587e-05 26.7822C-0.00744859 31.4837 1.2353 36.1036 3.60226 40.1733H24.7605V39.9984C21.417 39.4678 18.3978 37.7023 16.306 35.0546C14.2142 32.4069 13.2037 29.0718 13.4764 25.7155C13.749 22.3592 15.2848 19.2287 17.7769 16.9493C20.269 14.6699 23.534 13.4093 26.9198 13.4194V0C23.3838 0.000337623 19.8826 0.693383 16.616 2.03956C13.3495 3.38574 10.3815 5.35868 7.88173 7.8457C5.38194 10.3327 3.39926 13.2851 2.0469 16.5343C0.694546 19.7834 -0.00098533 23.2657 3.3587e-05 26.7822Z" fill="#FF5E00"/>
<path d="M50.4132 13.4683H29.255V13.6431C32.5985 14.1738 35.6176 15.9393 37.7095 18.587C39.8013 21.2347 40.8118 24.5698 40.5391 27.9261C40.2664 31.2824 38.7307 34.4129 36.2386 36.6923C33.7465 38.9717 30.4815 40.2322 27.0957 40.2222V53.6416C31.8216 53.6385 36.4635 52.3989 40.5554 50.0474C44.6472 47.6958 48.045 44.3151 50.4076 40.2446C52.7703 36.1741 54.0145 31.5572 54.0155 26.8572C54.0165 22.1572 52.7741 17.5397 50.4132 13.4683Z" fill="#FF5E00"/>
<path d="M127.806 13.3037H118.072V53.6468H127.806C130.971 53.6468 133.346 52.8015 134.93 51.111C136.514 49.4205 137.306 46.9422 137.304 43.6761V23.2744C137.304 20.0083 136.513 17.53 134.93 15.8395C133.347 14.149 130.973 13.3037 127.806 13.3037ZM130.932 43.9641C130.932 45.3477 130.652 46.3473 130.092 46.9628C129.531 47.5783 128.731 47.8852 127.689 47.8835H124.444V19.0799H127.689C128.724 19.0799 129.525 19.3868 130.092 20.0005C130.659 20.6143 130.939 21.6139 130.932 22.9992V43.9641Z" fill="#2D2D2D"/>
<path d="M181.404 13.3037H172.772L166.16 53.6468H172.069L173.228 45.7515H180.468V45.6358L181.627 53.6468H187.998L181.404 13.3037ZM173.99 40.2762L176.75 20.3349H176.866L179.711 40.2762H173.99Z" fill="#2D2D2D"/>
<path d="M84.5815 41.2869L77.4572 13.476H69.5391V53.6493H75.872V26.8671L82.7352 53.6493H90.9171V13.476H84.5815V41.2869Z" fill="#2D2D2D"/>
<path d="M157.097 33.1294V33.0136C159.878 31.8992 161.268 29.2486 161.268 25.0618V22.5826C161.268 19.4331 160.515 17.0988 159.008 15.5797C157.501 14.0607 155.107 13.302 151.824 13.3037H142.383V53.6468H148.628V19.067H151.651C152.773 19.067 153.594 19.3936 154.113 20.0469C154.632 20.7001 154.89 21.7562 154.888 23.2152V26.3271C154.888 27.8701 154.57 28.9657 153.932 29.6138C153.294 30.2618 152.338 30.5885 151.064 30.5936H150.997V36.3569C152.438 36.3569 153.455 36.7221 154.048 37.4525C154.641 38.1828 154.94 39.4687 154.945 41.3101V53.6005H161.278C161.278 52.8135 161.307 41.6547 161.307 41.6547C161.307 39.2698 160.989 37.3676 160.353 35.948C160.057 35.2616 159.608 34.6506 159.041 34.1607C158.474 33.6709 157.804 33.3148 157.079 33.1191" fill="#2D2D2D"/>
<path d="M110.844 29.7295H101.917V13.3037H95.7236V53.6494H101.917V35.4928H110.844V29.7295Z" fill="#2D2D2D"/>
<path d="M113.101 13.3037H104.291V19.067H113.101V13.3037Z" fill="#2D2D2D"/>
<path d="M113.101 47.886H104.291V53.6493H113.101V47.886Z" fill="#2D2D2D"/>
<path d="M128.71 60.8014C129.838 61.7444 130.401 63.0414 130.401 64.6924C130.401 66.3435 129.838 67.6371 128.71 68.5732C127.583 69.5128 126.026 69.9817 124.04 69.98H119.859V74.8663H118.214V59.3843H124.04C126.026 59.3843 127.583 59.8567 128.71 60.8014ZM127.531 67.5342C128.348 66.8639 128.756 65.9209 128.754 64.7053C128.754 63.452 128.346 62.4902 127.531 61.8198C126.716 61.1494 125.537 60.8099 123.996 60.8014H119.859V68.5423H123.996C125.537 68.5423 126.716 68.2063 127.531 67.5342Z" fill="#2D2D2D"/>
<path d="M142.943 70.7309H134.27L132.403 74.8663H130.688L137.808 59.3843H139.429L146.546 74.8663H144.813L142.943 70.7309ZM142.343 69.4039L138.607 61.0868L134.87 69.4039H142.343Z" fill="#2D2D2D"/>
<path d="M159.757 74.8663L156.199 69.89C155.785 69.9348 155.368 69.9571 154.952 69.9568H150.771V74.8663H149.126V59.3843H154.952C156.938 59.3843 158.495 59.8567 159.622 60.8014C160.75 61.7461 161.314 63.0431 161.314 64.6924C161.349 65.7861 161.025 66.8614 160.39 67.7554C159.728 68.6202 158.805 69.2511 157.755 69.5556L161.557 74.8637L159.757 74.8663ZM158.443 67.5471C159.257 66.8613 159.665 65.9097 159.666 64.6924C159.666 63.4391 159.259 62.4773 158.443 61.8069C157.628 61.1366 156.449 60.8014 154.908 60.8014H150.771V68.5629H154.908C156.449 68.5629 157.628 68.2243 158.443 67.5471Z" fill="#2D2D2D"/>
<path d="M168.006 60.8014H162.526V59.3843H175.112V60.8014H169.643V74.8663H167.996L168.006 60.8014Z" fill="#2D2D2D"/>
<path d="M178.472 74.4471C177.547 74.1606 176.705 73.66 176.013 72.9863L176.659 71.7261C177.301 72.3345 178.066 72.7984 178.904 73.0866C179.829 73.4296 180.808 73.6039 181.795 73.601C183.19 73.601 184.235 73.3438 184.932 72.8294C185.255 72.6107 185.519 72.3155 185.7 71.9703C185.88 71.6251 185.972 71.2408 185.966 70.8518C185.979 70.579 185.936 70.3065 185.838 70.0512C185.741 69.7959 185.591 69.5633 185.4 69.3679C185.002 68.9891 184.528 68.6989 184.008 68.5166C183.257 68.2591 182.492 68.0419 181.717 67.866C180.767 67.639 179.832 67.3538 178.917 67.0121C178.228 66.7462 177.614 66.3182 177.127 65.7648C176.631 65.2042 176.382 64.443 176.382 63.4863C176.374 62.7296 176.59 61.9873 177.003 61.3517C177.474 60.6611 178.14 60.1243 178.917 59.8087C179.932 59.3966 181.022 59.2012 182.118 59.2352C183.002 59.2344 183.882 59.3565 184.733 59.5978C185.52 59.8126 186.266 60.1531 186.944 60.6059L186.39 61.9098C185.745 61.4864 185.04 61.1622 184.298 60.9479C183.59 60.7389 182.856 60.6307 182.118 60.6265C180.756 60.6265 179.73 60.8888 179.038 61.4134C178.714 61.642 178.45 61.9458 178.27 62.2984C178.09 62.651 177.998 63.0419 178.004 63.4374C177.991 63.7115 178.035 63.9852 178.133 64.2417C178.231 64.4982 178.381 64.7321 178.573 64.929C178.975 65.3201 179.461 65.6148 179.995 65.7906C180.567 65.9912 181.332 66.2072 182.297 66.4438C183.236 66.6632 184.161 66.9406 185.066 67.2744C185.755 67.5361 186.369 67.9607 186.856 68.5115C187.345 69.0652 187.59 69.8136 187.59 70.7566C187.597 71.5149 187.376 72.258 186.956 72.8912C186.473 73.58 185.796 74.1108 185.009 74.4162C183.984 74.8215 182.887 75.014 181.785 74.982C180.658 74.9905 179.538 74.8096 178.472 74.4471Z" fill="#2D2D2D"/>
</svg>
