<svg width="24" height="24" viewBox="0 0 24 24" fill="none" xmlns="http://www.w3.org/2000/svg">
<g clip-path="url(#clip0_2005_10403)">
<path d="M20.2375 9.55544C19.9438 9.26332 19.4689 9.26462 19.1768 9.55829L10.1608 18.623C8.99114 19.7927 7.09135 19.7927 5.91946 18.6214C4.74845 17.4498 4.74845 15.55 5.9196 14.3789L15.2024 5.04729C15.9327 4.31704 17.12 4.31704 17.8524 5.04887C18.5846 5.78105 18.5846 6.9682 17.8522 7.70059L10.1623 15.3905L10.1608 15.392C9.86788 15.6834 9.39442 15.683 9.10206 15.3906C8.8092 15.0978 8.8092 14.6231 9.10206 14.3303L12.8139 10.6176C13.1068 10.3247 13.1068 9.84978 12.8138 9.55692C12.5209 9.26406 12.046 9.26409 11.7531 9.55702L8.0413 13.2696C7.16269 14.1482 7.16269 15.5726 8.04137 16.4513C8.92001 17.3299 10.3444 17.3299 11.2231 16.4513C11.2241 16.4503 11.2249 16.4492 11.2259 16.4482L18.9129 8.76121C20.2311 7.44303 20.2311 5.30611 18.9129 3.98793C17.5945 2.67053 15.4578 2.67053 14.1403 3.98793L4.85751 13.3196C3.10197 15.0751 3.10197 17.9244 4.85877 19.6821C6.61673 21.4392 9.46607 21.4392 11.223 19.6823L20.2404 10.6161C20.5325 10.3224 20.5312 9.84756 20.2375 9.55544Z" fill="black"/>
</g>
<defs>
<clipPath id="clip0_2005_10403">
<rect width="18" height="18" fill="white" transform="translate(3 3)"/>
</clipPath>
</defs>
</svg>
