<svg width="24" height="24" viewBox="0 0 24 24" fill="none" xmlns="http://www.w3.org/2000/svg">
<path d="M15.6559 16.7652L16.7652 15.6559L12.7894 11.6799V6.73683H11.2105V12.3198L15.6559 16.7652ZM12.0018 22C10.6187 22 9.31863 21.7375 8.10165 21.2126C6.88464 20.6877 5.82603 19.9753 4.9258 19.0755C4.02555 18.1757 3.31285 17.1175 2.78771 15.9011C2.26257 14.6846 2 13.3849 2 12.0018C2 10.6187 2.26246 9.31863 2.78737 8.10165C3.31228 6.88464 4.02465 5.82603 4.92448 4.9258C5.82433 4.02555 6.88248 3.31286 8.09894 2.78771C9.31538 2.26257 10.6151 2 11.9982 2C13.3813 2 14.6814 2.26246 15.8984 2.78737C17.1154 3.31229 18.174 4.02465 19.0742 4.92448C19.9744 5.82433 20.6871 6.88248 21.2123 8.09894C21.7374 9.31538 22 10.6151 22 11.9982C22 13.3813 21.7375 14.6814 21.2126 15.8984C20.6877 17.1154 19.9753 18.174 19.0755 19.0742C18.1757 19.9744 17.1175 20.6871 15.9011 21.2123C14.6846 21.7374 13.3849 22 12.0018 22Z" fill="black"/>
</svg>
