<svg width="24" height="24" viewBox="0 0 24 24" fill="none" xmlns="http://www.w3.org/2000/svg">
<path d="M11.9905 20.5V19H18.6924C18.7693 19 18.8398 18.9679 18.904 18.9038C18.9681 18.8397 19.0001 18.7692 19.0001 18.6923V5.3077C19.0001 5.23077 18.9681 5.16024 18.904 5.09613C18.8398 5.03203 18.7693 4.99998 18.6924 4.99998H11.9905V3.5H18.6924C19.1975 3.5 19.6251 3.675 19.9751 4.025C20.3251 4.375 20.5001 4.80257 20.5001 5.3077V18.6923C20.5001 19.1974 20.3251 19.625 19.9751 19.975C19.6251 20.325 19.1975 20.5 18.6924 20.5H11.9905ZM10.6348 16.2692L9.59634 15.1846L12.0309 12.75H3.50977V11.25H12.0309L9.59634 8.81538L10.6348 7.7308L14.904 12L10.6348 16.2692Z" fill="black"/>
</svg>
