<svg width="24" height="24" viewBox="0 0 24 24" fill="none" xmlns="http://www.w3.org/2000/svg">
<path d="M20.7534 22C18.5362 22 16.3088 21.4845 14.0713 20.4536C11.8337 19.4227 9.77602 17.9683 7.89819 16.0905C6.02791 14.2127 4.57731 12.1569 3.54639 9.92308C2.51546 7.68929 2 5.4638 2 3.24662C2 2.89368 2.11765 2.59768 2.35294 2.35862C2.58824 2.11954 2.88236 2 3.2353 2H7.07237C7.36951 2 7.63157 2.09691 7.85857 2.29074C8.08558 2.48456 8.22999 2.724 8.29181 3.00906L8.96602 6.47057C9.01278 6.79185 9.00298 7.06787 8.93661 7.29863C8.87025 7.5294 8.7511 7.72321 8.57914 7.88008L5.86195 10.5249C6.29937 11.3258 6.79899 12.0833 7.36084 12.7975C7.92268 13.5117 8.5309 14.1938 9.18549 14.8439C9.83106 15.4895 10.5173 16.089 11.2444 16.6426C11.9714 17.1961 12.7564 17.7112 13.5996 18.1878L16.2398 15.5249C16.4239 15.3334 16.6467 15.1991 16.9084 15.1222C17.1701 15.0453 17.442 15.0264 17.724 15.0657L20.9909 15.7308C21.2881 15.8092 21.5305 15.9608 21.7183 16.1855C21.9061 16.4103 22 16.6652 22 16.9503V20.7647C22 21.1176 21.8805 21.4118 21.6414 21.6471C21.4023 21.8824 21.1063 22 20.7534 22Z" fill="black"/>
</svg>
