<svg width="0" height="0" class="hidden">
  <symbol fill="none" xmlns="http://www.w3.org/2000/svg" viewBox="0 0 24 24" id="arrow-down">
    <path fill-rule="evenodd" clip-rule="evenodd" d="M5 9.41421L6.41421 8L11.7071 13.2929L17 8L18.4142 9.41421L11.7071 16.1213L5 9.41421Z" fill="black"></path>
  </symbol>
  <symbol fill="none" xmlns="http://www.w3.org/2000/svg" viewBox="0 0 24 24" id="basket">
    <path d="M5.3077 21.5C4.80257 21.5 4.375 21.325 4.025 20.975C3.675 20.625 3.5 20.1974 3.5 19.6923V8.30771C3.5 7.80258 3.675 7.37501 4.025 7.02501C4.375 6.67501 4.80257 6.50001 5.3077 6.50001H7.5C7.5 5.25131 7.93782 4.18915 8.81345 3.31351C9.6891 2.43788 10.7513 2.00006 12 2.00006C13.2487 2.00006 14.3109 2.43788 15.1865 3.31351C16.0621 4.18915 16.5 5.25131 16.5 6.50001H18.6922C19.1974 6.50001 19.625 6.67501 19.975 7.02501C20.325 7.37501 20.5 7.80258 20.5 8.30771V19.6923C20.5 20.1974 20.325 20.625 19.975 20.975C19.625 21.325 19.1974 21.5 18.6922 21.5H5.3077ZM12 13.5C13.2487 13.5 14.3109 13.0621 15.1865 12.1865C16.0621 11.3109 16.5 10.2487 16.5 8.99999H15C15 9.83332 14.7083 10.5417 14.125 11.125C13.5416 11.7083 12.8333 12 12 12C11.1666 12 10.4583 11.7083 9.87498 11.125C9.29164 10.5417 8.99998 9.83332 8.99998 8.99999H7.5C7.5 10.2487 7.93782 11.3109 8.81345 12.1865C9.6891 13.0621 10.7513 13.5 12 13.5ZM8.99998 6.50001H15C15 5.66668 14.7083 4.95834 14.125 4.37501C13.5416 3.79168 12.8333 3.50001 12 3.50001C11.1666 3.50001 10.4583 3.79168 9.87498 4.37501C9.29164 4.95834 8.99998 5.66668 8.99998 6.50001Z" fill="black"></path>
  </symbol>
  <symbol fill="none" xmlns="http://www.w3.org/2000/svg" viewBox="0 0 24 24" id="burger">
    <path d="M3.5 17.6346V16.1346H20.5V17.6346H3.5ZM3.5 12.75V11.25H20.5V12.75H3.5ZM3.5 7.86539V6.36542H20.5V7.86539H3.5Z" fill="black"></path>
  </symbol>
  <symbol fill="none" xmlns="http://www.w3.org/2000/svg" viewBox="0 0 24 24" id="login">
    <path d="M11.9905 20.5V19H18.6924C18.7693 19 18.8398 18.9679 18.904 18.9038C18.9681 18.8397 19.0001 18.7692 19.0001 18.6923V5.3077C19.0001 5.23077 18.9681 5.16024 18.904 5.09613C18.8398 5.03203 18.7693 4.99998 18.6924 4.99998H11.9905V3.5H18.6924C19.1975 3.5 19.6251 3.675 19.9751 4.025C20.3251 4.375 20.5001 4.80257 20.5001 5.3077V18.6923C20.5001 19.1974 20.3251 19.625 19.9751 19.975C19.6251 20.325 19.1975 20.5 18.6924 20.5H11.9905ZM10.6348 16.2692L9.59634 15.1846L12.0309 12.75H3.50977V11.25H12.0309L9.59634 8.81538L10.6348 7.7308L14.904 12L10.6348 16.2692Z" fill="black"></path>
  </symbol>
  <symbol xmlns="http://www.w3.org/2000/svg" viewBox="0 0 24 24" id="search">
    <path d="M19.5427 20.5769L13.2619 14.2961C12.7619 14.7089 12.1869 15.032 11.5369 15.2653C10.8869 15.4987 10.2145 15.6153 9.51965 15.6153C7.81048 15.6153 6.36396 15.0236 5.1801 13.84C3.99623 12.6564 3.4043 11.2103 3.4043 9.50157C3.4043 7.79284 3.99608 6.34616 5.17965 5.16154C6.36321 3.97694 7.80936 3.38464 9.5181 3.38464C11.2268 3.38464 12.6735 3.97658 13.8581 5.16044C15.0427 6.34431 15.635 7.79083 15.635 9.49999C15.635 10.2141 15.5151 10.8961 15.2754 11.5461C15.0356 12.1961 14.7158 12.7615 14.3158 13.2423L20.5965 19.5231L19.5427 20.5769ZM9.51965 14.1154C10.8081 14.1154 11.8995 13.6683 12.7937 12.774C13.6879 11.8798 14.135 10.7885 14.135 9.49999C14.135 8.21153 13.6879 7.12018 12.7937 6.22594C11.8995 5.33171 10.8081 4.88459 9.51965 4.88459C8.23118 4.88459 7.13983 5.33171 6.2456 6.22594C5.35138 7.12018 4.90427 8.21153 4.90427 9.49999C4.90427 10.7885 5.35138 11.8798 6.2456 12.774C7.13983 13.6683 8.23118 14.1154 9.51965 14.1154Z" />
  </symbol>
  <symbol fill="none" xmlns="http://www.w3.org/2000/svg" viewBox="0 0 24 24" id="navigator">
    <path d="M13.5921 21L10.6029 13.4621L3.06498 10.4079L3 9.88809L21.065 3L14.1119 21H13.5921Z" fill="black"></path>
  </symbol>
  <symbol fill="none" xmlns="http://www.w3.org/2000/svg" viewBox="0 0 24 24" id="tel">
    <path d="M20.7534 22C18.5362 22 16.3088 21.4845 14.0713 20.4536C11.8337 19.4227 9.77602 17.9683 7.89819 16.0905C6.02791 14.2127 4.57731 12.1569 3.54639 9.92308C2.51546 7.68929 2 5.4638 2 3.24662C2 2.89368 2.11765 2.59768 2.35294 2.35862C2.58824 2.11954 2.88236 2 3.2353 2H7.07237C7.36951 2 7.63157 2.09691 7.85857 2.29074C8.08558 2.48456 8.22999 2.724 8.29181 3.00906L8.96602 6.47057C9.01278 6.79185 9.00298 7.06787 8.93661 7.29863C8.87025 7.5294 8.7511 7.72321 8.57914 7.88008L5.86195 10.5249C6.29937 11.3258 6.79899 12.0833 7.36084 12.7975C7.92268 13.5117 8.5309 14.1938 9.18549 14.8439C9.83106 15.4895 10.5173 16.089 11.2444 16.6426C11.9714 17.1961 12.7564 17.7112 13.5996 18.1878L16.2398 15.5249C16.4239 15.3334 16.6467 15.1991 16.9084 15.1222C17.1701 15.0453 17.442 15.0264 17.724 15.0657L20.9909 15.7308C21.2881 15.8092 21.5305 15.9608 21.7183 16.1855C21.9061 16.4103 22 16.6652 22 16.9503V20.7647C22 21.1176 21.8805 21.4118 21.6414 21.6471C21.4023 21.8824 21.1063 22 20.7534 22Z" fill="black"></path>
  </symbol>
  <symbol fill="none" xmlns="http://www.w3.org/2000/svg" viewBox="0 0 24 24" id="message">
    <path d="M2 22V4C2 3.45 2.19583 2.97917 2.5875 2.5875C2.97917 2.19583 3.45 2 4 2H20C20.55 2 21.0208 2.19583 21.4125 2.5875C21.8042 2.97917 22 3.45 22 4V16C22 16.55 21.8042 17.0208 21.4125 17.4125C21.0208 17.8042 20.55 18 20 18H6L2 22ZM6 14H14V12H6V14ZM6 11H18V9H6V11ZM6 8H18V6H6V8Z" fill="black"></path>
  </symbol>
  <symbol fill="none" xmlns="http://www.w3.org/2000/svg" viewBox="0 0 24 24" id="clock">
    <path d="M15.6559 16.7652L16.7652 15.6559L12.7894 11.6799V6.73683H11.2105V12.3198L15.6559 16.7652ZM12.0018 22C10.6187 22 9.31863 21.7375 8.10165 21.2126C6.88464 20.6877 5.82603 19.9753 4.9258 19.0755C4.02555 18.1757 3.31285 17.1175 2.78771 15.9011C2.26257 14.6846 2 13.3849 2 12.0018C2 10.6187 2.26246 9.31863 2.78737 8.10165C3.31228 6.88464 4.02465 5.82603 4.92448 4.9258C5.82433 4.02555 6.88248 3.31286 8.09894 2.78771C9.31538 2.26257 10.6151 2 11.9982 2C13.3813 2 14.6814 2.26246 15.8984 2.78737C17.1154 3.31229 18.174 4.02465 19.0742 4.92448C19.9744 5.82433 20.6871 6.88248 21.2123 8.09894C21.7374 9.31538 22 10.6151 22 11.9982C22 13.3813 21.7375 14.6814 21.2126 15.8984C20.6877 17.1154 19.9753 18.174 19.0755 19.0742C18.1757 19.9744 17.1175 20.6871 15.9011 21.2123C14.6846 21.7374 13.3849 22 12.0018 22Z" fill="black"></path>
  </symbol>
  <symbol fill="none" xmlns="http://www.w3.org/2000/svg" viewBox="0 0 24 24" id="share">
    <path d="M18 22C17.1667 22 16.4583 21.7083 15.875 21.125C15.2917 20.5417 15 19.8333 15 19C15 18.8833 15.0083 18.7625 15.025 18.6375C15.0417 18.5125 15.0667 18.4 15.1 18.3L8.05 14.2C7.76667 14.45 7.45 14.6458 7.1 14.7875C6.75 14.9292 6.38333 15 6 15C5.16667 15 4.45833 14.7083 3.875 14.125C3.29167 13.5417 3 12.8333 3 12C3 11.1667 3.29167 10.4583 3.875 9.875C4.45833 9.29167 5.16667 9 6 9C6.38333 9 6.75 9.07083 7.1 9.2125C7.45 9.35417 7.76667 9.55 8.05 9.8L15.1 5.7C15.0667 5.6 15.0417 5.4875 15.025 5.3625C15.0083 5.2375 15 5.11667 15 5C15 4.16667 15.2917 3.45833 15.875 2.875C16.4583 2.29167 17.1667 2 18 2C18.8333 2 19.5417 2.29167 20.125 2.875C20.7083 3.45833 21 4.16667 21 5C21 5.83333 20.7083 6.54167 20.125 7.125C19.5417 7.70833 18.8333 8 18 8C17.6167 8 17.25 7.92917 16.9 7.7875C16.55 7.64583 16.2333 7.45 15.95 7.2L8.9 11.3C8.93333 11.4 8.95833 11.5125 8.975 11.6375C8.99167 11.7625 9 11.8833 9 12C9 12.1167 8.99167 12.2375 8.975 12.3625C8.95833 12.4875 8.93333 12.6 8.9 12.7L15.95 16.8C16.2333 16.55 16.55 16.3542 16.9 16.2125C17.25 16.0708 17.6167 16 18 16C18.8333 16 19.5417 16.2917 20.125 16.875C20.7083 17.4583 21 18.1667 21 19C21 19.8333 20.7083 20.5417 20.125 21.125C19.5417 21.7083 18.8333 22 18 22ZM18 6C18.2833 6 18.5208 5.90417 18.7125 5.7125C18.9042 5.52083 19 5.28333 19 5C19 4.71667 18.9042 4.47917 18.7125 4.2875C18.5208 4.09583 18.2833 4 18 4C17.7167 4 17.4792 4.09583 17.2875 4.2875C17.0958 4.47917 17 4.71667 17 5C17 5.28333 17.0958 5.52083 17.2875 5.7125C17.4792 5.90417 17.7167 6 18 6ZM6 13C6.28333 13 6.52083 12.9042 6.7125 12.7125C6.90417 12.5208 7 12.2833 7 12C7 11.7167 6.90417 11.4792 6.7125 11.2875C6.52083 11.0958 6.28333 11 6 11C5.71667 11 5.47917 11.0958 5.2875 11.2875C5.09583 11.4792 5 11.7167 5 12C5 12.2833 5.09583 12.5208 5.2875 12.7125C5.47917 12.9042 5.71667 13 6 13ZM18 20C18.2833 20 18.5208 19.9042 18.7125 19.7125C18.9042 19.5208 19 19.2833 19 19C19 18.7167 18.9042 18.4792 18.7125 18.2875C18.5208 18.0958 18.2833 18 18 18C17.7167 18 17.4792 18.0958 17.2875 18.2875C17.0958 18.4792 17 18.7167 17 19C17 19.2833 17.0958 19.5208 17.2875 19.7125C17.4792 19.9042 17.7167 20 18 20Z" fill="black"></path>
  </symbol>  
  <symbol fill="none" xmlns="http://www.w3.org/2000/svg" viewBox="0 0 14 11" id="check">
    <path fill-rule="evenodd" clip-rule="evenodd" d="M13.9907 3.12633L5.04209 10.9978L0.00927734 6.57078L1.99069 4.31822L5.04209 7.00232L12.0093 0.873779L13.9907 3.12633Z" fill="black"></path>
  </symbol>
  <symbol fill="none" xmlns="http://www.w3.org/2000/svg" viewBox="0 0 24 24" id="eye">
    <path d="M12 16C13.25 16 14.3125 15.5625 15.1875 14.6875C16.0625 13.8125 16.5 12.75 16.5 11.5C16.5 10.25 16.0625 9.1875 15.1875 8.3125C14.3125 7.4375 13.25 7 12 7C10.75 7 9.6875 7.4375 8.8125 8.3125C7.9375 9.1875 7.5 10.25 7.5 11.5C7.5 12.75 7.9375 13.8125 8.8125 14.6875C9.6875 15.5625 10.75 16 12 16ZM12 14.2C11.25 14.2 10.6125 13.9375 10.0875 13.4125C9.5625 12.8875 9.3 12.25 9.3 11.5C9.3 10.75 9.5625 10.1125 10.0875 9.5875C10.6125 9.0625 11.25 8.8 12 8.8C12.75 8.8 13.3875 9.0625 13.9125 9.5875C14.4375 10.1125 14.7 10.75 14.7 11.5C14.7 12.25 14.4375 12.8875 13.9125 13.4125C13.3875 13.9375 12.75 14.2 12 14.2ZM12 19C9.56667 19 7.35 18.3208 5.35 16.9625C3.35 15.6042 1.9 13.7833 1 11.5C1.9 9.21667 3.35 7.39583 5.35 6.0375C7.35 4.67917 9.56667 4 12 4C14.4333 4 16.65 4.67917 18.65 6.0375C20.65 7.39583 22.1 9.21667 23 11.5C22.1 13.7833 20.65 15.6042 18.65 16.9625C16.65 18.3208 14.4333 19 12 19ZM12 17C13.8833 17 15.6125 16.5042 17.1875 15.5125C18.7625 14.5208 19.9667 13.1833 20.8 11.5C19.9667 9.81667 18.7625 8.47917 17.1875 7.4875C15.6125 6.49583 13.8833 6 12 6C10.1167 6 8.3875 6.49583 6.8125 7.4875C5.2375 8.47917 4.03333 9.81667 3.2 11.5C4.03333 13.1833 5.2375 14.5208 6.8125 15.5125C8.3875 16.5042 10.1167 17 12 17Z" fill="black"></path>
  </symbol>
</svg>