<svg width="24" height="24" viewBox="0 0 24 24" fill="none" xmlns="http://www.w3.org/2000/svg">
<path d="M19.4403 20.5C17.5557 20.5 15.6625 20.0618 13.7606 19.1855C11.8586 18.3092 10.1096 17.073 8.51345 15.4769C6.92372 13.8807 5.69071 12.1333 4.81443 10.2346C3.93814 8.33588 3.5 6.44423 3.5 4.55963C3.5 4.25963 3.6 4.00802 3.8 3.80482C4 3.60161 4.25 3.5 4.55 3.5H7.8115C8.06407 3.5 8.28682 3.58238 8.47977 3.74713C8.67272 3.91188 8.79548 4.1154 8.84803 4.3577L9.4211 7.29998C9.46085 7.57306 9.45252 7.80768 9.3961 8.00383C9.3397 8.19998 9.23842 8.36472 9.09225 8.49805L6.78265 10.7461C7.15445 11.4269 7.57913 12.0708 8.0567 12.6779C8.53427 13.2849 9.05125 13.8647 9.60765 14.4173C10.1564 14.966 10.7397 15.4756 11.3577 15.9462C11.9756 16.4167 12.6429 16.8545 13.3596 17.2596L15.6038 14.9962C15.7602 14.8333 15.9497 14.7192 16.1721 14.6539C16.3945 14.5885 16.6256 14.5724 16.8654 14.6058L19.6422 15.1712C19.8948 15.2378 20.1009 15.3667 20.2605 15.5577C20.4201 15.7487 20.5 15.9654 20.5 16.2077V19.45C20.5 19.75 20.3983 20 20.1951 20.2C19.9919 20.4 19.7403 20.5 19.4403 20.5Z" fill="black"/>
</svg>
