<svg width="24" height="24" viewBox="0 0 24 24" fill="none" xmlns="http://www.w3.org/2000/svg">
<path d="M5.3077 21.5C4.80257 21.5 4.375 21.325 4.025 20.975C3.675 20.625 3.5 20.1974 3.5 19.6923V8.30771C3.5 7.80258 3.675 7.37501 4.025 7.02501C4.375 6.67501 4.80257 6.50001 5.3077 6.50001H7.5C7.5 5.25131 7.93782 4.18915 8.81345 3.31351C9.6891 2.43788 10.7513 2.00006 12 2.00006C13.2487 2.00006 14.3109 2.43788 15.1865 3.31351C16.0621 4.18915 16.5 5.25131 16.5 6.50001H18.6922C19.1974 6.50001 19.625 6.67501 19.975 7.02501C20.325 7.37501 20.5 7.80258 20.5 8.30771V19.6923C20.5 20.1974 20.325 20.625 19.975 20.975C19.625 21.325 19.1974 21.5 18.6922 21.5H5.3077ZM12 13.5C13.2487 13.5 14.3109 13.0621 15.1865 12.1865C16.0621 11.3109 16.5 10.2487 16.5 8.99999H15C15 9.83332 14.7083 10.5417 14.125 11.125C13.5416 11.7083 12.8333 12 12 12C11.1666 12 10.4583 11.7083 9.87498 11.125C9.29164 10.5417 8.99998 9.83332 8.99998 8.99999H7.5C7.5 10.2487 7.93782 11.3109 8.81345 12.1865C9.6891 13.0621 10.7513 13.5 12 13.5ZM8.99998 6.50001H15C15 5.66668 14.7083 4.95834 14.125 4.37501C13.5416 3.79168 12.8333 3.50001 12 3.50001C11.1666 3.50001 10.4583 3.79168 9.87498 4.37501C9.29164 4.95834 8.99998 5.66668 8.99998 6.50001Z" fill="black"/>
</svg>
