<svg width="95" height="38" viewBox="0 0 95 38" fill="none" xmlns="http://www.w3.org/2000/svg">
<g clip-path="url(#clip0_2004_8520)">
<mask id="mask0_2004_8520" style="mask-type:luminance" maskUnits="userSpaceOnUse" x="-78" y="-57" width="251" height="141">
<path d="M172.946 -56.7726H-77.946V83.9537H172.946V-56.7726Z" fill="white"/>
</mask>
<g mask="url(#mask0_2004_8520)">
<path d="M0.000261113 13.5697C-0.00351977 15.9518 0.624464 18.2925 1.82053 20.3545H12.5122V20.2659C10.8227 19.997 9.29702 19.1025 8.23998 17.761C7.18294 16.4195 6.67232 14.7297 6.81011 13.0292C6.94789 11.3287 7.72393 9.74256 8.98323 8.58765C10.2425 7.43275 11.8924 6.79407 13.6033 6.79916V0C11.8165 0.000171062 10.0473 0.351314 8.39665 1.03338C6.74598 1.71544 5.24623 2.71506 3.98304 3.97516C2.71984 5.23525 1.71795 6.73113 1.03458 8.37737C0.351212 10.0236 -0.000253765 11.788 0.000261113 13.5697Z" fill="black"/>
<path d="M25.4751 6.82397H14.7834V6.91258C16.4729 7.18144 17.9986 8.07596 19.0556 9.41747C20.1127 10.759 20.6233 12.4488 20.4855 14.1493C20.3477 15.8498 19.5717 17.4359 18.3124 18.5908C17.0531 19.7457 15.4032 20.3844 13.6923 20.3793V27.1785C16.0804 27.1769 18.426 26.5488 20.4937 25.3574C22.5614 24.166 24.2784 22.4531 25.4723 20.3907C26.6661 18.3283 27.2949 15.989 27.2954 13.6077C27.2959 11.2264 26.6681 8.88685 25.4751 6.82397Z" fill="black"/>
<path d="M64.5829 6.74048H59.6643V27.181H64.5829C66.1823 27.181 67.3823 26.7527 68.1829 25.8962C68.9835 25.0397 69.3834 23.784 69.3825 22.1292V11.7923C69.3825 10.1375 68.9826 8.88178 68.1829 8.02526C67.3832 7.16874 66.1832 6.74048 64.5829 6.74048ZM66.1627 22.2751C66.1627 22.9761 66.0211 23.4826 65.738 23.7944C65.4549 24.1063 65.0502 24.2618 64.5241 24.2609H62.8841V9.66707H64.5241C65.0468 9.66707 65.4514 9.82255 65.738 10.1335C66.0246 10.4445 66.1662 10.951 66.1627 11.6529V22.2751Z" fill="black"/>
<path d="M91.6675 6.74048H87.3056L83.9643 27.181H86.9502L87.5356 23.1807H91.1944V23.1221L91.7798 27.181H94.9996L91.6675 6.74048ZM87.9211 20.4066L89.3153 10.3029H89.3741L90.8115 20.4066H87.9211Z" fill="black"/>
<path d="M42.7409 20.9187L39.1409 6.82788H35.1396V27.1824H38.3398V13.6127L41.8079 27.1824H45.9424V6.82788H42.7409V20.9187Z" fill="black"/>
<path d="M79.3842 16.7855V16.7268C80.7894 16.1622 81.492 14.8192 81.492 12.6979V11.4418C81.492 9.84602 81.1113 8.66331 80.3499 7.89365C79.5885 7.124 78.3785 6.73961 76.7198 6.74048H71.9489V27.181H75.1047V9.66055H76.6322C77.1993 9.66055 77.614 9.82604 77.8762 10.157C78.1385 10.488 78.2691 11.0231 78.2683 11.7623V13.339C78.2683 14.1208 78.1071 14.6759 77.7848 15.0042C77.4624 15.3326 76.9794 15.4981 76.3356 15.5007H76.3016V18.4208C77.0299 18.4208 77.5439 18.6058 77.8436 18.9758C78.1432 19.3459 78.2944 19.9974 78.297 20.9304V27.1575H81.4972C81.4972 26.7588 81.5116 21.105 81.5116 21.105C81.5116 19.8966 81.3508 18.9328 81.0294 18.2136C80.8798 17.8658 80.6533 17.5562 80.3668 17.308C80.0803 17.0598 79.7413 16.8794 79.3751 16.7803" fill="black"/>
<path d="M56.012 15.0629H51.5012V6.74048H48.3716V27.1823H51.5012V17.9829H56.012V15.0629Z" fill="black"/>
<path d="M57.1528 6.74048H52.7008V9.66055H57.1528V6.74048Z" fill="black"/>
<path d="M57.1528 24.2622H52.7008V27.1823H57.1528V24.2622Z" fill="black"/>
</g>
<path d="M65.0402 30.8061C65.61 31.2839 65.8948 31.941 65.8948 32.7776C65.8948 33.6141 65.61 34.2695 65.0402 34.7438C64.4705 35.2199 63.6838 35.4575 62.6803 35.4566H60.5673V37.9323H59.7362V30.0881H62.6803C63.6838 30.0881 64.4705 30.3275 65.0402 30.8061ZM64.4444 34.2174C64.8573 33.8778 65.0633 33.4 65.0624 32.7841C65.0624 32.1491 64.8564 31.6618 64.4444 31.3221C64.0323 30.9824 63.4369 30.8104 62.6581 30.8061H60.5673V34.7282H62.6581C63.4369 34.7282 64.0323 34.5579 64.4444 34.2174Z" fill="black"/>
<path d="M72.2325 35.8371H67.8497L66.9062 37.9323H66.0399L69.6373 30.0881H70.4566L74.0527 37.9323H73.1772L72.2325 35.8371ZM71.9293 35.1647L70.0411 30.9507L68.1529 35.1647H71.9293Z" fill="black"/>
<path d="M80.7288 37.9323L78.9308 35.411C78.7216 35.4337 78.5113 35.445 78.3009 35.4449H76.188V37.9323H75.3569V30.0881H78.3009C79.3045 30.0881 80.0912 30.3275 80.6609 30.8061C81.2306 31.2847 81.5155 31.9419 81.5155 32.7776C81.5333 33.3317 81.3695 33.8765 81.049 34.3295C80.7143 34.7676 80.2477 35.0873 79.7174 35.2416L81.6383 37.931L80.7288 37.9323ZM80.065 34.2239C80.4762 33.8764 80.6822 33.3943 80.6831 32.7776C80.6831 32.1426 80.4771 31.6552 80.065 31.3156C79.653 30.9759 79.0575 30.8061 78.2787 30.8061H76.188V34.7386H78.2787C79.0575 34.7386 79.653 34.5671 80.065 34.2239Z" fill="black"/>
<path d="M84.8973 30.8061H82.1283V30.0881H88.4882V30.8061H85.7244V37.9323H84.8921L84.8973 30.8061Z" fill="black"/>
<path d="M90.1856 37.7199C89.7185 37.5748 89.2926 37.3211 88.9429 36.9798L89.2696 36.3413C89.5938 36.6495 89.9806 36.8846 90.4038 37.0306C90.8711 37.2044 91.366 37.2927 91.8648 37.2912C92.5695 37.2912 93.0979 37.1609 93.4498 36.9003C93.6133 36.7895 93.7467 36.6399 93.8379 36.465C93.9291 36.2901 93.9754 36.0954 93.9725 35.8983C93.9792 35.7601 93.9572 35.622 93.908 35.4926C93.8587 35.3633 93.7833 35.2454 93.6864 35.1464C93.4854 34.9545 93.2457 34.8075 92.9833 34.7151C92.6036 34.5847 92.2171 34.4746 91.8256 34.3855C91.3454 34.2705 90.8727 34.126 90.4104 33.9529C90.0622 33.8181 89.752 33.6013 89.5061 33.3209C89.2552 33.0368 89.1298 32.6511 89.1298 32.1664C89.1257 31.7831 89.2348 31.4069 89.4434 31.0849C89.6815 30.735 90.0179 30.463 90.4104 30.3031C90.9233 30.0943 91.4744 29.9953 92.0281 30.0125C92.4749 30.0122 92.9196 30.074 93.3492 30.1963C93.7469 30.3051 94.1242 30.4776 94.4665 30.707L94.1868 31.3677C93.861 31.1532 93.5046 30.9889 93.1297 30.8803C92.7721 30.7744 92.4012 30.7196 92.0281 30.7175C91.3399 30.7175 90.8211 30.8504 90.4718 31.1162C90.3078 31.232 90.1745 31.3859 90.0834 31.5646C89.9924 31.7432 89.9463 31.9413 89.9491 32.1417C89.9428 32.2805 89.9651 32.4192 90.0145 32.5492C90.0639 32.6792 90.1395 32.7977 90.2366 32.8974C90.4397 33.0956 90.6855 33.2449 90.9553 33.3339C91.2441 33.4356 91.6309 33.545 92.1183 33.6649C92.5931 33.7761 93.0605 33.9166 93.5178 34.0858C93.8658 34.2184 94.1761 34.4335 94.422 34.7125C94.6694 34.9931 94.7932 35.3723 94.7932 35.8501C94.7966 36.2343 94.6851 36.6108 94.473 36.9316C94.229 37.2806 93.8865 37.5495 93.489 37.7043C92.9711 37.9096 92.4166 38.0071 91.8595 37.9909C91.2902 37.9952 90.7243 37.9036 90.1856 37.7199Z" fill="black"/>
</g>
<defs>
<clipPath id="clip0_2004_8520">
<rect width="95" height="38" fill="white"/>
</clipPath>
</defs>
</svg>
