<svg width="537" height="215" viewBox="0 0 537 215" fill="none" xmlns="http://www.w3.org/2000/svg">
<g clip-path="url(#clip0_2006_8880)">
<mask id="mask0_2006_8880" style="mask-type:luminance" maskUnits="userSpaceOnUse" x="-441" y="-322" width="1419" height="798">
<path d="M977.6 -321.214H-440.6V475.001H977.6V-321.214Z" fill="white"/>
</mask>
<g mask="url(#mask0_2006_8880)">
<path d="M0.00204906 76.7757C-0.0193229 90.2533 3.53044 103.497 10.2914 115.164H70.7274V114.662C61.1771 113.141 52.5532 108.08 46.5781 100.49C40.6031 92.8997 37.7168 83.3391 38.4956 73.7177C39.2744 64.0964 43.6611 55.1224 50.7795 48.588C57.8978 42.0537 67.2239 38.4401 76.8951 38.4689V0C66.7951 0.000967852 56.7943 1.9877 47.4637 5.84674C38.1331 9.70579 29.6556 15.3615 22.5152 22.491C15.3748 29.6205 9.71153 38.084 5.84869 47.3983C1.98584 56.7125 -0.000861354 66.695 0.00204906 76.7757Z" fill="#FF5E00"/>
<path d="M144.001 38.609H83.5651V39.1103C93.1155 40.6315 101.739 45.6926 107.714 53.2828C113.689 60.8729 116.576 70.4334 115.797 80.0548C115.018 89.6762 110.631 98.6502 103.513 105.185C96.3947 111.719 87.0686 115.332 77.3975 115.304V153.773C90.8965 153.764 104.156 150.21 115.843 143.469C127.531 136.728 137.237 127.037 143.985 115.368C150.734 103.699 154.288 90.4638 154.291 76.9906C154.293 63.5174 150.745 50.2805 144.001 38.609Z" fill="#FF5E00"/>
<path d="M365.063 38.1372H337.261V153.787H365.063C374.104 153.787 380.888 151.364 385.413 146.518C389.939 141.672 392.199 134.568 392.194 125.205V66.7198C392.194 57.357 389.934 50.2525 385.413 45.4064C380.893 40.5603 374.109 38.1372 365.063 38.1372ZM373.994 126.03C373.994 129.997 373.193 132.862 371.593 134.627C369.993 136.391 367.705 137.271 364.731 137.266H355.461V54.6955H364.731C367.686 54.6955 369.973 55.5753 371.593 57.3348C373.213 59.0943 374.013 61.9598 373.994 65.931V126.03Z" fill="white"/>
<path d="M518.163 38.1372H493.507L474.619 153.787H491.497L494.807 131.154H515.489V130.822L518.798 153.787H536.998L518.163 38.1372ZM496.986 115.458L504.867 58.2932H505.199L513.324 115.458H496.986Z" fill="white"/>
<path d="M241.599 118.356L221.249 38.6312H198.632V153.795H216.721V77.019L236.325 153.795H259.695V38.6312H241.599V118.356Z" fill="white"/>
<path d="M448.73 94.9707V94.639C456.673 91.4443 460.644 83.8458 460.644 71.8436V64.7367C460.644 55.708 458.492 49.0164 454.188 44.6618C449.884 40.3071 443.045 38.1323 433.669 38.1372H406.701V153.787H424.539V54.6587H433.174C436.379 54.6587 438.723 55.595 440.206 57.4676C441.688 59.3401 442.427 62.3677 442.422 66.5503V75.4708C442.422 79.8942 441.511 83.0348 439.689 84.8927C437.867 86.7505 435.136 87.6868 431.497 87.7015H431.305V104.223C435.422 104.223 438.327 105.27 440.021 107.364C441.715 109.457 442.569 113.144 442.584 118.422V153.655H460.674C460.674 151.399 460.755 119.41 460.755 119.41C460.755 112.573 459.846 107.12 458.029 103.051C457.184 101.083 455.903 99.3317 454.284 97.9274C452.665 96.5231 450.748 95.5022 448.678 94.9412" fill="white"/>
<path d="M316.615 85.2244H291.117V38.1372H273.427V153.795H291.117V101.746H316.615V85.2244Z" fill="white"/>
<path d="M323.064 38.1372H297.898V54.6587H323.064V38.1372Z" fill="white"/>
<path d="M323.064 137.273H297.898V153.795H323.064V137.273Z" fill="white"/>
</g>
<path d="M367.648 174.297C370.869 177 372.479 180.719 372.479 185.452C372.479 190.185 370.869 193.893 367.648 196.577C364.428 199.27 359.981 200.614 354.308 200.609H342.365V214.617H337.667V170.235H354.308C359.981 170.235 364.428 171.589 367.648 174.297ZM364.28 193.598C366.614 191.676 367.779 188.973 367.774 185.488C367.774 181.896 366.609 179.138 364.28 177.217C361.951 175.295 358.585 174.322 354.183 174.297H342.365V196.488H354.183C358.585 196.488 361.951 195.525 364.28 193.598Z" fill="white"/>
<path d="M408.304 202.762H383.529L378.196 214.617H373.299L393.634 170.235H398.265L418.593 214.617H413.644L408.304 202.762ZM406.59 198.958L395.916 175.116L385.243 198.958H406.59Z" fill="white"/>
<path d="M456.33 214.617L446.167 200.351C444.984 200.48 443.796 200.544 442.606 200.543H430.662V214.617H425.965V170.235H442.606C448.279 170.235 452.726 171.589 455.946 174.297C459.167 177.005 460.777 180.723 460.777 185.452C460.878 188.587 459.952 191.669 458.14 194.232C456.248 196.711 453.61 198.52 450.613 199.393L461.471 214.609L456.33 214.617ZM452.578 193.635C454.902 191.669 456.067 188.941 456.072 185.452C456.072 181.859 454.907 179.102 452.578 177.18C450.249 175.258 446.883 174.297 442.481 174.297H430.662V196.547H442.481C446.883 196.547 450.249 195.576 452.578 193.635Z" fill="white"/>
<path d="M479.893 174.297H464.241V170.235H500.191V174.297H484.569V214.617H479.864L479.893 174.297Z" fill="white"/>
<path d="M509.786 213.415C507.145 212.594 504.738 211.159 502.761 209.227L504.608 205.615C506.44 207.359 508.627 208.689 511.019 209.515C513.661 210.498 516.458 210.998 519.278 210.989C523.261 210.989 526.248 210.252 528.237 208.778C529.161 208.151 529.915 207.304 530.431 206.315C530.947 205.325 531.208 204.224 531.192 203.108C531.23 202.326 531.105 201.545 530.827 200.813C530.549 200.081 530.122 199.415 529.574 198.855C528.438 197.769 527.084 196.937 525.6 196.414C523.454 195.676 521.269 195.053 519.056 194.549C516.342 193.898 513.67 193.081 511.056 192.101C509.088 191.339 507.335 190.112 505.945 188.526C504.527 186.919 503.818 184.736 503.818 181.994C503.795 179.825 504.411 177.697 505.59 175.875C506.936 173.895 508.838 172.356 511.056 171.451C513.956 170.27 517.071 169.71 520.201 169.807C522.726 169.805 525.24 170.155 527.669 170.847C529.917 171.463 532.049 172.439 533.984 173.737L532.403 177.475C530.562 176.261 528.547 175.331 526.428 174.717C524.406 174.118 522.31 173.808 520.201 173.796C516.311 173.796 513.378 174.548 511.404 176.052C510.477 176.707 509.723 177.578 509.208 178.589C508.694 179.599 508.433 180.72 508.449 181.854C508.413 182.64 508.539 183.424 508.819 184.16C509.098 184.895 509.525 185.565 510.074 186.13C511.222 187.251 512.612 188.096 514.137 188.6C515.769 189.175 517.955 189.794 520.711 190.472C523.394 191.101 526.037 191.896 528.621 192.853C530.589 193.604 532.343 194.821 533.733 196.4C535.131 197.987 535.831 200.132 535.831 202.836C535.85 205.009 535.22 207.14 534.021 208.955C532.642 210.929 530.706 212.451 528.459 213.326C525.532 214.488 522.397 215.04 519.248 214.948C516.03 214.973 512.831 214.454 509.786 213.415Z" fill="white"/>
</g>
<defs>
<clipPath id="clip0_2006_8880">
<rect width="537" height="215" fill="white"/>
</clipPath>
</defs>
</svg>
